  <svg width="2000" height="2000" xmlns="http://www.w3.org/2000/svg">
  <!-- the first art work(trail run) -->
      <rect x="50" y="70" width="450" height="650" fill="rgb(44, 133, 135)" />
      <rect x="90" y="95" width="370" height="575" fill="rgb(91, 67, 46)" />
      <rect x="110" y="110" width="330" height="540" fill="rgb(44, 133, 135)" />
      <rect x="150" y="150" width="120" height="140" fill="rgb(243, 52, 173)" />
      <rect x="300" y="500" width="80" height="95" fill="rgb(52, 160, 243)" />

 <!-- 2nd art work -->
<!-- red lines -->
      <rect x="50" y="900" width="450" height="600" fill="rgb(198, 173, 150)" />
      <rect x="270" y="960" width="3" height="400" fill="rgb(123, 40, 40)" />
      <rect x="50" y="1200" width="350" height="3" fill="rgb(123, 40, 40)" />
      <rect x="270" y="1160" width="175" height="3" fill="rgb(123, 40, 40)" />
      <rect x="195" y="1240" width="75" height="3" fill="rgb(123, 40, 40)" />
<!--  black line or rec-->
      <rect x="380" y="960" width="8" height="240" fill="rgb(0, 0, 0)" />
      <rect x="380" y="960" width="8" height="240" fill="rgb(0, 0, 0)" />
      <rect x="450" y="1200" width="3" height="110" fill="rgb(0, 0, 0)" />
      <rect x="195" y="1243" width="15" height="110" fill="rgb(0, 0, 0)" />
<!-- grey line or rec -->
      <rect x="200" y="1243" width="10" height="95" fill="rgb(158, 158, 158)" />
      <rect x="360" y="1000" width="8" height="160" fill="rgb(158, 158, 158)" />
      <rect x="90" y="1203" width="70" height="70" fill="rgb(158, 158, 158)" />
<!-- beige line or rec -->
      <rect x="360" y="1203" width="90" height="50" fill="rgb(213, 180, 153)" />

<!-- black circle -->
    <circle cx="270" cy="1400" r="40"  fill="black" />
  </svg>

